<?xml version="1.0" encoding="utf-8"?>
<!-- Generator: Adobe Illustrator 17.0.0, SVG Export Plug-In . SVG Version: 6.00 Build 0)  -->
<!DOCTYPE svg PUBLIC "-//W3C//DTD SVG 1.1//EN" "http://www.w3.org/Graphics/SVG/1.1/DTD/svg11.dtd">
<svg version="1.1" id="图层_1" xmlns:sketch="http://www.bohemiancoding.com/sketch/ns"
	 xmlns="http://www.w3.org/2000/svg" xmlns:xlink="http://www.w3.org/1999/xlink" x="0px" y="0px" width="156px" height="29px"
	 viewBox="0 0 156 29" enable-background="new 0 0 156 29" xml:space="preserve">
<title>logo</title>
<desc>Created with Sketch.</desc>
<g id="header_1_" sketch:type="MSPage">
	<g id="fold" transform="translate(-85.000000, -12.000000)" sketch:type="MSArtboardGroup">
		<g id="header" transform="translate(0.000000, -1.000000)" sketch:type="MSLayerGroup">
			<g id="logo" transform="translate(85.000000, 13.000000)" sketch:type="MSShapeGroup">
				<g id="Group" transform="translate(0.000000, 3.043478)">
					<path id="Shape" d="M1.252,14.73c0.954,0.864,2.325,1.638,3.637,1.638c0.954,0,2.027-0.417,2.027-1.549
						c0-1.251-1.461-1.459-3.1-2.174c-1.848-0.804-3.398-1.787-3.398-4.139c0-3.067,2.475-4.378,5.545-4.378
						c1.669,0,3.458,0.387,4.74,1.221v0.357L9.511,8.059c-0.835-0.625-1.968-1.042-3.22-1.042c-1.103,0-1.789,0.447-1.789,1.311
						c0,1.132,1.312,1.37,2.951,1.995c2.266,0.864,3.637,1.816,3.637,4.229c0,3.156-2.474,4.527-5.754,4.527
						c-2.087,0-3.756-0.566-5.336-1.757v-0.358L1.252,14.73L1.252,14.73z"/>
					<path id="Shape_1_" d="M19.02,19.078c-4.859,0-6.827-3.365-6.827-7.564c0-4.139,1.818-7.385,6.618-7.385
						c4.621,0,6.261,2.978,6.261,6.849c0,0.447-0.119,1.251-0.299,1.727c-1.133,0-8.079-0.059-8.377-0.059
						c0.03,1.578,0.715,3.663,3.101,3.663c1.222,0,2.236-0.626,3.13-1.578l1.7,1.906v0.357
						C22.896,18.244,21.226,19.078,19.02,19.078L19.02,19.078z M18.811,7.047c-1.461,0-2.296,1.131-2.385,3.484
						c0.328,0,4.472-0.089,4.621-0.089C21.047,8.208,20.392,7.047,18.811,7.047L18.811,7.047z"/>
					<path id="Shape_2_" d="M39.47,7.226v12.061c0,4.109-3.1,5.837-6.499,5.837c-1.908,0-3.965-0.506-5.575-1.459l1.073-2.65h0.358
						c1.073,0.715,2.415,1.191,3.697,1.191c1.759,0,2.743-0.894,2.743-2.442c0-0.238,0.09-1.608,0.149-2.441l-0.119-0.06
						c-1.013,0.923-2.236,1.787-3.905,1.787c-4.085,0-5.068-3.722-5.068-7.534c0-3.722,1.52-7.385,5.158-7.385
						c1.61,0,2.892,0.715,3.965,1.697l0.09-0.059l0.298-1.042l0.328-0.298l3.398,0.089C39.53,4.813,39.47,6.332,39.47,7.226
						L39.47,7.226z M35.296,8.416c-0.656-0.744-1.55-1.191-2.355-1.191c-1.998,0-2.236,2.68-2.236,4.288
						c0,1.757,0.09,4.705,1.968,4.705c0.835,0,1.878-0.685,2.564-1.549C35.237,14.373,35.296,8.744,35.296,8.416L35.296,8.416z"/>
					<path id="Shape_3_" d="M57.506,18.691c0-0.268,0.119-9.113,0.119-9.381c0-1.489-0.388-2.055-1.312-2.055
						c-0.686,0-1.64,0.387-2.385,0.983v10.453h-4.114c0-0.268,0.06-9.113,0.06-9.381c0-1.489-0.358-2.055-1.222-2.055
						c-0.715,0-1.7,0.417-2.445,1.012l0.03,10.423h-4.233V8.178c0-1.012-0.059-3.037-0.09-3.663l3.518-0.089l0.328,0.298
						l0.208,1.161l0.06,0.03c1.282-1.042,3.071-1.757,4.591-1.757c1.193,0,2.325,0.536,2.891,1.816
						c1.461-1.131,3.339-1.816,4.859-1.816c1.938,0,3.459,1.191,3.459,4.229c0,0.298-0.09,10.006-0.09,10.303h-4.232V18.691z"/>
					<path id="Shape_4_" d="M70.532,19.078c-4.859,0-6.827-3.365-6.827-7.564c0-4.139,1.818-7.385,6.618-7.385
						c4.621,0,6.261,2.978,6.261,6.849c0,0.447-0.119,1.251-0.298,1.727c-1.133,0-8.079-0.059-8.378-0.059
						c0.03,1.578,0.715,3.663,3.101,3.663c1.222,0,2.236-0.626,3.13-1.578l1.7,1.906v0.357
						C74.408,18.244,72.739,19.078,70.532,19.078L70.532,19.078z M70.324,7.047c-1.461,0-2.296,1.131-2.385,3.484
						c0.328,0,4.472-0.089,4.621-0.089C72.56,8.208,71.904,7.047,70.324,7.047L70.324,7.047z"/>
					<path id="Shape_5_" d="M86.451,18.691c0-0.268,0.119-9.113,0.119-9.381c0-1.519-0.358-2.055-1.372-2.055
						c-0.745,0-1.818,0.477-2.623,1.012l0.03,10.423h-4.233V8.178c0-1.042-0.059-3.037-0.09-3.663l3.518-0.089l0.328,0.298
						l0.208,1.161l0.06,0.03c1.341-0.983,3.28-1.757,4.859-1.757c1.998,0,3.519,1.191,3.519,4.229
						c0,0.298-0.089,10.006-0.089,10.303h-4.234V18.691z"/>
					<path id="Shape_6_" d="M97.988,18.691c-3.727,0-3.995-2.144-3.995-4.229c0-0.298,0-4.169,0.059-6.968
						c-0.924,0.03-1.52,0.03-1.818,0.03l0.03-3.008c0.298,0,0.865,0,1.789,0.03c-0.03-1.639-0.059-3.753-0.059-4.02l0.298-0.298
						h3.935c0,0.268,0,2.055-0.059,4.318c1.043-0.03,2.445-0.03,2.743-0.03l-0.06,3.008c-0.298,0-1.64,0-2.683-0.03
						c0.03,2.71,0.03,6.194,0.03,6.462c0,1.489,0.03,1.787,1.341,1.787h1.163l0.06,2.65l-0.298,0.298L97.988,18.691L97.988,18.691z"
						/>
				</g>
				<g id="Group_1_" transform="translate(102.375000, 0.000000)">
					<path id="Shape_7_" fill="#009A61" d="M1.634,28.285c0-0.298,0.06-14.949,0.09-17.748c-0.805,0.03-1.64,0.03-1.878,0.03
						l0.03-3.008c0.239,0,1.043,0,1.819,0.03c0-0.119-0.06-2.591-0.06-2.681c0-3.365,1.968-4.616,4.532-4.616
						c1.104,0,2.236,0.178,3.369,0.655v0.447L8.671,3.778C8.194,3.51,7.657,3.361,7.18,3.361c-0.835,0-1.371,0.417-1.371,1.995
						c0,0.536,0.03,2.115,0.03,2.234c0.895-0.03,2.594-0.03,2.832-0.03l-0.03,3.008c-0.239,0-1.938,0-2.832-0.03
						c0.059,2.799,0.059,17.45,0.059,17.748H1.634L1.634,28.285z"/>
					<path id="Shape_8_" fill="#009A61" d="M18.181,21.436l-0.358-1.132l-0.119-0.03c-1.282,1.161-2.714,1.847-4.472,1.847
						c-3.189,0-3.756-2.74-3.756-4.348c0-4.586,3.935-4.854,8.05-5.092v-0.923c0-1.311-0.865-1.638-1.908-1.638
						c-1.849,0-3.548,0.595-4.561,0.982l-0.924-2.382V8.363c2.714-0.983,5.069-1.191,6.708-1.191c2.951,0,4.889,1.221,4.889,4.408
						v6.73c0,1.161,0.06,2.829,0.09,3.425h-3.339L18.181,21.436L18.181,21.436z M17.554,14.914c-2.803,0.06-4.024,0.089-4.024,2.323
						c0,1.042,0.268,2.025,1.401,2.025c0.715,0,1.7-0.387,2.594-1.311c0-0.178,0.059-2.829,0.059-3.008L17.554,14.914L17.554,14.914
						z"/>
					<path id="Shape_9_" fill="#009A61" d="M33.443,21.734l-0.298-0.298l-0.358-1.191l-0.119-0.03
						c-1.58,1.489-3.22,1.906-4.859,1.906c-2.177,0-3.757-1.191-3.757-4.229c0-0.298,0.09-10.036,0.09-10.334h3.935l0.298,0.298
						c0,0.328-0.09,8.875-0.09,9.262c0,1.072,0.358,2.084,1.431,2.084c0.895,0,2.087-0.595,2.803-1.34L32.46,7.559h3.935
						l0.298,0.298V18.31c0,1.161,0.06,2.829,0.09,3.425H33.443L33.443,21.734z"/>
					<path id="Shape_10_" fill="#009A61" d="M43.4,18.31c0,1.131,0.059,2.829,0.119,3.425h-4.233
						c-0.06-0.595-0.119-2.293-0.119-3.425V4.224c0-1.132-0.03-2.829-0.09-3.425l4.025-0.119L43.4,0.977V18.31L43.4,18.31z"/>
					<path id="Shape_11_" fill="#009A61" d="M50.704,21.734c-3.727,0-3.995-2.144-3.995-4.229c0-0.298,0-4.169,0.059-6.968
						c-0.924,0.03-1.52,0.03-1.818,0.03l0.03-3.008c0.298,0,0.865,0,1.789,0.03c-0.03-1.639-0.059-3.753-0.059-4.02l0.298-0.298
						h3.935c0,0.268,0,2.055-0.059,4.318c1.043-0.03,2.445-0.03,2.743-0.03l-0.06,3.008c-0.298,0-1.64,0-2.683-0.03
						c0.03,2.71,0.03,6.194,0.03,6.462c0,1.489,0.03,1.787,1.341,1.787h1.163l0.06,2.65l-0.298,0.298L50.704,21.734L50.704,21.734z"
						/>
				</g>
			</g>
		</g>
	</g>
</g>
</svg>
